<svg width="135" height="51" viewBox="0 0 135 51" fill="none" xmlns="http://www.w3.org/2000/svg">
<path d="M85.0988 13.4272C85.4258 14.0878 84.7719 14.0878 84.4449 14.0878L73.3286 17.0602C72.3477 17.7208 71.6938 16.73 71.6938 16.73C64.8279 8.14282 50.442 14.0878 49.7881 26.6382C49.1342 38.5281 64.5009 43.152 71.6938 31.2621H59.2697C58.2888 31.2621 56.6541 30.9318 58.2888 27.9593L60.9044 22.3446C61.5583 21.0235 61.8853 21.0235 63.847 21.0235H86.7336C86.7336 47.7758 57.308 59.6657 41.6143 43.4822C34.4214 35.8859 32.1327 18.7116 46.8455 6.49144C58.6158 -3.08653 78.2328 -3.08653 85.0988 13.4272ZM90.33 45.1336C75.6172 32.2529 83.4641 5.50062 106.678 1.20705C130.545 -3.08653 141.007 19.3722 131.526 36.2162C123.679 50.418 102.754 56.3629 90.33 45.1336ZM121.063 28.2896C124.006 20.0327 118.121 12.1061 109.293 12.7667C99.4847 13.7575 92.6187 26.6382 98.8308 34.2345C105.043 41.5006 117.794 38.1978 121.063 28.2896ZM16.1121 27.629V27.2988L16.7661 25.6474L17.42 25.3171H30.8249L31.1519 25.6474L30.8249 27.2988L30.498 27.629H16.1121ZM0.418497 21.6841C0.418497 21.6841 -0.235405 21.6841 0.0915463 21.3538L1.39935 19.3722L2.05325 19.0419H32.1327L32.4597 19.3722L31.8058 21.0235L31.4788 21.3538L0.418497 21.6841ZM10.227 15.4089L9.90008 15.0786L11.5348 13.4272L12.1887 13.0969H35.7292V13.4272L34.7484 15.0786L34.0945 15.4089H10.227Z" fill="#00ACD7"/>
</svg>
